<svg width="24" height="24" viewBox="0 0 24 24" fill="none" xmlns="http://www.w3.org/2000/svg">
<path d="M16.985 24C16.5115 24 16.1484 23.9684 15.8958 23.9051C13.6544 23.5254 11.1288 21.9274 8.31905 19.1111L5.05156 15.931C2.08399 13.0514 0.426562 10.5516 0.079292 8.4315C-0.299548 5.90004 0.679121 3.44768 3.0153 1.07443C3.52042 0.504854 3.9624 0.1726 4.34124 0.0776699C5.00421 -0.11219 5.58825 0.0460266 6.09337 0.552319L6.18808 0.647249L9.2188 4.53937C9.56607 5.17224 9.69235 5.726 9.59764 6.20065C9.31351 6.61201 9.01359 6.94426 8.69789 7.19741C7.71922 8.08342 7.27724 9.11183 7.37195 10.2826C7.46666 11.3269 7.956 12.1971 8.83996 12.8932L11.1604 15.2665C12.0443 16.1525 12.9441 16.5955 13.8596 16.5955C14.9961 16.6904 15.9906 16.1999 16.8429 15.1241C17.2218 14.7127 17.5533 14.4279 17.8374 14.2697C18.2794 14.0798 18.8003 14.1748 19.4001 14.5545L23.3779 17.5922C23.9146 18.1302 24.104 18.7156 23.9462 19.3484C23.8515 19.7598 23.5358 20.2344 22.9991 20.7724C21.1365 22.9241 19.1318 24 16.985 24Z" fill="#184895"/>
</svg>
